HIERARCHY
ROOT Hips
{
	OFFSET 0.000001 107.585541 -0.292875
	CHANNELS 6 Xposition Yposition Zposition Xrotation Yrotation Zrotation
	JOINT Spine
	{
		OFFSET -0.023067 13.156998 0.957426
		CHANNELS 6 Xposition Yposition Zposition Xrotation Yrotation Zrotation
		JOINT Spine1
		{
			OFFSET 0.000000 9.894669 0.072741
			CHANNELS 3 Xrotation Yrotation Zrotation
			JOINT Spine2
			{
				OFFSET 0.000000 10.499985 -0.058234
				CHANNELS 3 Xrotation Yrotation Zrotation
				JOINT Neck
				{
					OFFSET -0.000000 26.776306 -4.691216
					CHANNELS 6 Xposition Yposition Zposition Xrotation Yrotation Zrotation
					JOINT Head
					{
						OFFSET 0.000000 14.063217 3.449322
						CHANNELS 6 Xposition Yposition Zposition Xrotation Yrotation Zrotation
						JOINT HeadTop_End
						{
							OFFSET 0.000000 19.645248 2.611582
							CHANNELS 6 Xposition Yposition Zposition Xrotation Yrotation Zrotation
							End Site
							{
								OFFSET 0.000000 14.113129 0.000000
							}
						}
						JOINT L_Eye
						{
							OFFSET 3.570282 7.264572 7.838836
							CHANNELS 6 Xposition Yposition Zposition Xrotation Yrotation Zrotation
							End Site
							{
								OFFSET 0.000000 14.113129 0.000000
							}
						}
						JOINT R_Eye
						{
							OFFSET -3.524154 7.264282 7.838838
							CHANNELS 6 Xposition Yposition Zposition Xrotation Yrotation Zrotation
							End Site
							{
								OFFSET 0.000000 14.113129 0.000000
							}
						}
					}
				}
				JOINT L_Shoulder
				{
					OFFSET 7.980431 21.886398 -6.266449
					CHANNELS 6 Xposition Yposition Zposition Xrotation Yrotation Zrotation
					JOINT L_Arm
					{
						OFFSET 10.677479 -5.478394 -0.078065
						CHANNELS 3 Xrotation Yrotation Zrotation
						JOINT L_ForeArm
						{
							OFFSET 27.567778 0.000015 0.000000
							CHANNELS 3 Xrotation Yrotation Zrotation
							JOINT L_Hand
							{
								OFFSET 27.500092 -0.000015 0.480016
								CHANNELS 3 Xrotation Yrotation Zrotation
								JOINT L_HandThumb1
								{
									OFFSET 5.751503 -2.607742 4.214736
									CHANNELS 6 Xposition Yposition Zposition Xrotation Yrotation Zrotation
									JOINT L_HandThumb2
									{
										OFFSET 2.728218 -1.585464 1.645159
										CHANNELS 6 Xposition Yposition Zposition Xrotation Yrotation Zrotation
										JOINT L_HandThumb3
										{
											OFFSET 2.690651 -1.563644 1.622507
											CHANNELS 6 Xposition Yposition Zposition Xrotation Yrotation Zrotation
											JOINT L_HandThumb4
											{
												OFFSET 2.811111 -1.633636 1.695147
												CHANNELS 6 Xposition Yposition Zposition Xrotation Yrotation Zrotation
												End Site
												{
													OFFSET 2.811104 -1.633652 1.695142
												}
											}
										}
									}
								}
								JOINT L_HandIndex1
								{
									OFFSET 13.704086 -1.118973 2.963548
									CHANNELS 6 Xposition Yposition Zposition Xrotation Yrotation Zrotation
									JOINT L_HandIndex2
									{
										OFFSET 2.538002 -0.000046 0.044317
										CHANNELS 3 Xrotation Yrotation Zrotation
										JOINT L_HandIndex3
										{
											OFFSET 3.551018 0.000015 0.062044
											CHANNELS 3 Xrotation Yrotation Zrotation
											JOINT L_HandIndex4
											{
												OFFSET 3.082214 0.000031 0.053894
												CHANNELS 3 Xrotation Yrotation Zrotation
												End Site
												{
													OFFSET 3.082214 0.000046 0.053895
												}
											}
										}
									}
								}
								JOINT L_HandMiddle1
								{
									OFFSET 13.314011 -0.054794 0.195248
									CHANNELS 6 Xposition Yposition Zposition Xrotation Yrotation Zrotation
									JOINT L_HandMiddle2
									{
										OFFSET 4.054405 -0.000015 0.070800
										CHANNELS 3 Xrotation Yrotation Zrotation
										JOINT L_HandMiddle3
										{
											OFFSET 2.984230 -0.000031 0.052059
											CHANNELS 3 Xrotation Yrotation Zrotation
											JOINT L_HandMiddle4
											{
												OFFSET 3.040154 -0.000031 0.053016
												CHANNELS 3 Xrotation Yrotation Zrotation
												End Site
												{
													OFFSET 3.040154 0.000000 0.053016
												}
											}
										}
									}
								}
								JOINT L_HandRing1
								{
									OFFSET 12.889366 0.014862 -3.304775
									CHANNELS 6 Xposition Yposition Zposition Xrotation Yrotation Zrotation
									JOINT L_HandRing2
									{
										OFFSET 4.066383 0.000000 0.071006
										CHANNELS 3 Xrotation Yrotation Zrotation
										JOINT L_HandRing3
										{
											OFFSET 2.688652 0.000061 0.047021
											CHANNELS 3 Xrotation Yrotation Zrotation
											JOINT L_HandRing4
											{
												OFFSET 2.892899 0.000000 0.050566
												CHANNELS 3 Xrotation Yrotation Zrotation
												End Site
												{
													OFFSET 2.892906 0.000015 0.050566
												}
											}
										}
									}
								}
								JOINT L_HandPinky1
								{
									OFFSET 12.770164 -1.052109 -6.055603
									CHANNELS 6 Xposition Yposition Zposition Xrotation Yrotation Zrotation
									JOINT L_HandPinky2
									{
										OFFSET 3.092682 -0.000046 0.054011
										CHANNELS 3 Xrotation Yrotation Zrotation
										JOINT L_HandPinky3
										{
											OFFSET 2.176254 0.000031 0.038088
											CHANNELS 3 Xrotation Yrotation Zrotation
											JOINT L_HandPinky4
											{
												OFFSET 2.208496 -0.000031 0.038607
												CHANNELS 3 Xrotation Yrotation Zrotation
												End Site
												{
													OFFSET 2.208504 -0.000031 0.038607
												}
											}
										}
									}
								}
							}
						}
					}
				}
				JOINT R_Shoulder
				{
					OFFSET -7.980434 21.886810 -6.266449
					CHANNELS 6 Xposition Yposition Zposition Xrotation Yrotation Zrotation
					JOINT R_Arm
					{
						OFFSET -10.677509 -5.479004 -0.078070
						CHANNELS 3 Xrotation Yrotation Zrotation
						JOINT R_ForeArm
						{
							OFFSET -27.567785 0.000000 -0.000000
							CHANNELS 3 Xrotation Yrotation Zrotation
							JOINT R_Hand
							{
								OFFSET -27.500015 0.000000 0.480015
								CHANNELS 3 Xrotation Yrotation Zrotation
								JOINT R_HandThumb1
								{
									OFFSET -5.971848 -2.424500 3.942988
									CHANNELS 6 Xposition Yposition Zposition Xrotation Yrotation Zrotation
									JOINT R_HandThumb2
									{
										OFFSET -2.728195 -1.584976 1.645155
										CHANNELS 6 Xposition Yposition Zposition Xrotation Yrotation Zrotation
										JOINT R_HandThumb3
										{
											OFFSET -2.690704 -1.563995 1.622524
											CHANNELS 6 Xposition Yposition Zposition Xrotation Yrotation Zrotation
											JOINT R_HandThumb4
											{
												OFFSET -2.811142 -1.633011 1.695130
												CHANNELS 6 Xposition Yposition Zposition Xrotation Yrotation Zrotation
												End Site
												{
													OFFSET -2.811142 -1.632996 1.695138
												}
											}
										}
									}
								}
								JOINT R_HandIndex1
								{
									OFFSET -13.521736 -0.054581 0.198885
									CHANNELS 6 Xposition Yposition Zposition Xrotation Yrotation Zrotation
									JOINT R_HandIndex2
									{
										OFFSET -4.381210 0.000015 0.076519
										CHANNELS 3 Xrotation Yrotation Zrotation
										JOINT R_HandIndex3
										{
											OFFSET -3.478577 0.000031 0.060751
											CHANNELS 3 Xrotation Yrotation Zrotation
											JOINT R_HandIndex4
											{
												OFFSET -6.319054 -0.000015 0.110473
												CHANNELS 3 Xrotation Yrotation Zrotation
												End Site
												{
													OFFSET -6.319061 0.000015 0.110474
												}
											}
										}
									}
								}
								JOINT R_HandRing1
								{
									OFFSET -12.702789 0.785950 -3.722343
									CHANNELS 6 Xposition Yposition Zposition Xrotation Yrotation Zrotation
									JOINT R_HandRing2
									{
										OFFSET -4.066383 0.000000 0.070999
										CHANNELS 3 Xrotation Yrotation Zrotation
										JOINT R_HandRing3
										{
											OFFSET -2.688583 0.000015 0.047006
											CHANNELS 3 Xrotation Yrotation Zrotation
											JOINT R_HandRing4
											{
												OFFSET -2.892967 -0.000015 0.050556
												CHANNELS 3 Xrotation Yrotation Zrotation
												End Site
												{
													OFFSET -2.892960 0.000015 0.050555
												}
											}
										}
									}
								}
								JOINT R_HandPinky1
								{
									OFFSET -12.544357 -0.205673 -6.499258
									CHANNELS 6 Xposition Yposition Zposition Xrotation Yrotation Zrotation
									JOINT R_HandPinky2
									{
										OFFSET -3.092621 0.000000 0.053982
										CHANNELS 3 Xrotation Yrotation Zrotation
										JOINT R_HandPinky3
										{
											OFFSET -2.176262 0.000000 0.037988
											CHANNELS 3 Xrotation Yrotation Zrotation
											JOINT R_HandPinky4
											{
												OFFSET -2.208572 0.000000 0.038550
												CHANNELS 3 Xrotation Yrotation Zrotation
												End Site
												{
													OFFSET -2.208565 0.000000 0.038550
												}
											}
										}
									}
								}
							}
						}
					}
				}
			}
		}
	}
	JOINT L_UpLeg
	{
		OFFSET 10.121319 -5.316734 0.163048
		CHANNELS 6 Xposition Yposition Zposition Xrotation Yrotation Zrotation
		JOINT L_Leg
		{
			OFFSET -0.000002 -40.854481 0.206897
			CHANNELS 3 Xrotation Yrotation Zrotation
			JOINT L_Foot
			{
				OFFSET 0.000002 -52.055374 -3.073691
				CHANNELS 3 Xrotation Yrotation Zrotation
				JOINT L_ToeBase
				{
					OFFSET 1.169127 -9.354687 13.784521
					CHANNELS 6 Xposition Yposition Zposition Xrotation Yrotation Zrotation
					JOINT L_Toe_End
					{
						OFFSET 0.516993 -0.004916 8.312323
						CHANNELS 6 Xposition Yposition Zposition Xrotation Yrotation Zrotation
						End Site
						{
							OFFSET 0.516995 -0.004916 8.312323
						}
					}
				}
			}
		}
	}
	JOINT R_UpLeg
	{
		OFFSET -10.121301 -5.316544 0.163048
		CHANNELS 6 Xposition Yposition Zposition Xrotation Yrotation Zrotation
		JOINT R_Leg
		{
			OFFSET 0.000055 -40.854687 0.206898
			CHANNELS 3 Xrotation Yrotation Zrotation
			JOINT R_Foot
			{
				OFFSET -0.000054 -52.055359 -3.073693
				CHANNELS 3 Xrotation Yrotation Zrotation
				JOINT R_ToeBase
				{
					OFFSET -1.169123 -9.354716 13.784500
					CHANNELS 6 Xposition Yposition Zposition Xrotation Yrotation Zrotation
					JOINT R_Toe_End
					{
						OFFSET -0.516972 -0.004950 8.311937
						CHANNELS 6 Xposition Yposition Zposition Xrotation Yrotation Zrotation
						End Site
						{
							OFFSET -0.516973 -0.004951 8.311935
						}
					}
				}
			}
		}
	}
}
MOTION
Frames: 4
Frame Time: 0.033333
0.722122 97.615265 -2.063994 11.290482 -18.254575 0.169223 -0.023067 13.156988 0.957428 2.604838 -0.537993 1.842257 7.297588 -1.133660 1.433355 7.307841 -1.020911 1.461404 -0.000001 26.776302 -4.691204 -5.370316 3.254435 -2.335274 -0.000002 14.063222 3.449313 -22.222113 14.074756 -1.014125 0.000000 19.645248 2.611586 0.000000 0.000000 0.000000 3.570281 7.264603 7.838837 0.000000 0.000000 -0.000000 -3.524154 7.264313 7.838838 0.000000 0.000000 -0.000000 7.980434 21.886406 -6.266445 0.713676 4.102854 -11.931954 -5.837381 -20.332746 -54.741364 13.292330 -82.873171 13.308572 19.950115 -0.388066 26.134457 5.751505 -2.607748 4.214733 0.833230 5.483120 3.009139 2.728222 -1.585460 1.645162 4.803881 -0.287328 -3.360151 2.690679 -1.563637 1.622505 9.858010 39.424040 -2.165771 2.811089 -1.633614 1.695145 -0.000002 0.000000 -0.000000 13.704104 -1.118982 2.963538 -10.707076 -6.874280 -13.988191 0.500646 2.791835 -20.515114 2.265976 4.849034 -39.432540 -0.000000 -0.000001 0.000000 13.314014 -0.054752 0.195241 -1.108125 -1.397584 -1.674556 2.728101 6.154972 -52.733712 0.051712 2.383970 -17.463122 -0.000000 0.000002 -0.000000 12.889369 0.014859 -3.304780 -2.737330 12.391053 15.814456 0.436741 3.445979 -25.404544 1.715239 4.516200 -35.887976 -0.000002 0.000001 0.000002 12.770184 -1.052114 -6.055616 3.947013 24.871903 1.707595 0.711690 3.674656 -26.807596 3.749104 6.103104 -53.225448 0.000003 -0.000000 0.000000 -7.980439 21.886808 -6.266446 2.078218 -6.509718 8.303950 -17.358540 21.605186 70.490667 -71.812541 79.086856 76.934206 19.130832 4.792792 6.183530 -5.971849 -2.424509 3.942995 -7.720990 21.853783 -15.784583 -2.728216 -1.585021 1.645155 7.584294 -44.570212 -8.286284 -2.690702 -1.563972 1.622519 -10.811241 21.562842 6.859338 -2.811151 -1.633005 1.695139 -0.000002 0.000008 0.000001 -13.521733 -0.054567 0.198901 0.145166 -3.676870 -19.572932 2.491491 -5.044336 44.440534 0.034336 -1.048265 8.021312 -0.000003 0.000002 -0.000001 -12.702794 0.785951 -3.722325 0.101595 -7.993939 16.448509 -0.580546 -1.082212 7.458436 -0.245704 -0.763498 5.694796 -0.000001 0.000001 0.000001 -12.544340 -0.205682 -6.499243 1.042937 -10.002416 29.673135 3.451767 -5.951617 54.820983 2.271853 -4.820283 41.298923 0.000000 -0.000002 0.000003 10.121320 -5.316726 0.163052 -47.780356 6.938656 24.252526 42.447399 7.766627 1.615548 -2.994070 1.510008 -18.063006 1.169125 -9.354695 13.784522 -0.432020 0.039339 0.257649 0.517000 -0.004915 8.312318 0.000001 0.000001 -0.000000 -10.121299 -5.316544 0.163050 -40.543836 -9.814204 -16.404504 42.819699 -10.461581 -1.550561 -7.581814 -1.974508 16.558533 -1.169118 -9.354713 13.784500 -0.359849 0.037466 0.375738 -0.516970 -0.004952 8.311941 0.000003 0.000002 0.000000 
0.463807 97.748505 -1.852702 10.073349 -16.422208 -0.051105 -0.023068 13.157006 0.957425 3.111130 -0.521992 1.617672 6.848463 -1.050190 1.291745 6.857962 -0.948135 1.318209 0.000002 26.776293 -4.691208 -3.982241 3.014225 -2.162587 0.000000 14.063223 3.449318 -21.016547 12.933726 -0.410614 0.000000 19.645248 2.611583 -0.000000 0.000000 0.000000 3.570281 7.264587 7.838835 -0.000000 0.000000 0.000000 -3.524154 7.264282 7.838838 -0.000000 0.000000 0.000000 7.980437 21.886385 -6.266444 0.969849 1.558223 -13.242978 -5.575231 -16.887887 -54.711540 38.794505 -80.648415 38.865907 17.909145 -2.728802 22.057891 5.751500 -2.607732 4.214734 0.598665 5.022268 3.994311 2.728232 -1.585461 1.645161 5.812950 0.584876 -2.854174 2.690657 -1.563661 1.622510 15.409308 34.640189 -5.870438 2.811084 -1.633625 1.695146 -0.000000 0.000004 0.000005 13.704096 -1.118981 2.963542 -9.872840 -5.045637 -14.313651 0.523051 2.825249 -20.794612 2.089150 4.692492 -37.770488 0.000000 -0.000001 -0.000000 13.314010 -0.054778 0.195238 -1.398239 0.313780 -4.757619 2.382104 5.891659 -49.593628 0.043070 2.284363 -16.742247 0.000000 -0.000001 -0.000000 12.889355 0.014836 -3.304782 -2.334786 13.706283 11.484140 0.438840 3.451564 -25.448059 1.540789 4.322700 -34.030058 0.000000 0.000000 0.000000 12.770172 -1.052121 -6.055613 4.715702 23.904004 -2.133562 0.716884 3.686096 -26.897138 3.206285 5.727748 -48.524273 0.000001 0.000001 0.000001 -7.980430 21.886816 -6.266444 2.441611 -4.572348 9.093482 -16.129493 18.517386 69.551133 -64.632202 82.524593 69.185944 16.427633 4.304522 8.990811 -5.971840 -2.424527 3.942984 -7.033671 20.000957 -15.842967 -2.728211 -1.585013 1.645152 9.577045 -43.393756 -6.221300 -2.690698 -1.563986 1.622521 -5.599141 21.023541 3.833195 -2.811151 -1.633009 1.695144 0.000001 0.000001 0.000001 -13.521731 -0.054591 0.198889 0.443256 -2.955620 -17.974194 2.545700 -5.108908 45.082271 0.065216 -1.127288 8.616184 -0.000000 0.000001 -0.000002 -12.702792 0.785933 -3.722342 0.012006 -7.485856 16.600367 -0.510932 -1.405629 9.945044 -0.214112 -0.816080 6.097840 0.000000 -0.000001 -0.000003 -12.544350 -0.205680 -6.499263 0.698313 -9.501455 25.981789 3.345685 -5.891874 53.876150 2.165615 -4.633980 39.802439 0.000005 -0.000001 -0.000000 10.121325 -5.316722 0.163043 -46.809882 7.467833 23.548315 41.813510 6.053172 1.762431 -2.577610 1.429469 -17.378937 1.169130 -9.354692 13.784524 -0.326557 0.085800 0.991846 0.516997 -0.004915 8.312323 0.000001 0.000000 0.000000 -10.121302 -5.316539 0.163049 -38.861119 -9.754911 -16.408963 42.853225 -12.443318 -2.215590 -7.579213 -1.994834 16.927500 -1.169119 -9.354714 13.784502 -0.362187 0.016396 0.607270 -0.516970 -0.004952 8.311936 0.000003 0.000003 0.000000 
0.194605 97.949951 -1.624646 8.632188 -14.371051 -0.181119 -0.023067 13.157000 0.957429 3.623438 -0.443552 1.321141 6.339177 -0.936077 1.110661 6.347908 -0.847522 1.133824 0.000000 26.776300 -4.691210 -2.200968 2.729239 -1.956447 -0.000000 14.063198 3.449314 -19.234578 11.559484 0.317832 0.000001 19.645264 2.611583 0.000000 -0.000000 -0.000000 3.570282 7.264587 7.838836 0.000000 -0.000000 -0.000000 -3.524153 7.264297 7.838837 0.000000 -0.000000 -0.000000 7.980436 21.886396 -6.266443 1.129767 -1.259252 -14.678100 -5.374123 -13.261512 -54.599521 53.006813 -77.091990 53.110516 15.399372 -4.906949 17.353306 5.751516 -2.607750 4.214743 0.352020 4.522920 5.068755 2.728228 -1.585451 1.645164 6.864874 1.424256 -2.301570 2.690657 -1.563639 1.622512 20.378184 28.978389 -8.784584 2.811118 -1.633588 1.695146 -0.000004 0.000002 0.000003 13.704101 -1.118991 2.963549 -8.921614 -3.113621 -14.703901 0.546949 2.859728 -21.085250 1.901669 4.515792 -35.958993 -0.000000 -0.000001 -0.000000 13.314012 -0.054803 0.195245 -1.534170 2.141104 -8.028628 2.022787 5.584857 -46.165262 0.035350 2.178626 -15.973763 -0.000000 -0.000003 -0.000000 12.889359 0.014844 -3.304781 -1.781290 15.001409 6.799792 0.441008 3.457244 -25.492008 1.358182 4.105571 -32.006260 0.000000 0.000006 0.000003 12.770168 -1.052123 -6.055608 5.334595 22.786379 -6.206344 0.719053 3.690809 -26.934054 2.659377 5.279771 -43.489631 -0.000002 -0.000000 0.000000 -7.980432 21.886803 -6.266448 2.662951 -2.106907 10.503242 -14.453929 14.794548 67.769738 -46.371753 86.114820 50.431644 13.626518 2.935584 11.970165 -5.971849 -2.424514 3.942984 -6.325738 17.966664 -15.864900 -2.728201 -1.584996 1.645143 11.454309 -41.738746 -4.247221 -2.690720 -1.563977 1.622507 0.143149 20.571492 0.329835 -2.811157 -1.633008 1.695138 -0.000002 -0.000002 0.000006 -13.521735 -0.054592 0.198888 0.664712 -2.230430 -16.076826 2.556089 -5.133578 45.253657 0.101232 -1.219422 9.312680 0.000001 0.000001 -0.000001 -12.702806 0.785955 -3.722338 -0.186072 -6.899987 17.370588 -0.416664 -1.766434 12.741177 -0.178782 -0.885366 6.629251 -0.000001 -0.000002 -0.000000 -12.544344 -0.205671 -6.499272 0.318864 -8.893600 22.122986 3.245274 -5.835754 52.988222 2.058306 -4.435655 38.180976 0.000003 0.000002 0.000001 10.121315 -5.316734 0.163039 -45.555060 8.130036 22.707428 41.019917 4.128740 1.896778 -1.894644 1.315087 -16.606712 1.169125 -9.354695 13.784520 -0.282393 0.128402 1.992679 0.516994 -0.004915 8.312325 0.000001 -0.000002 0.000000 -10.121299 -5.316551 0.163053 -36.852193 -9.803277 -16.626670 42.768602 -14.473036 -2.770708 -7.367945 -1.975875 17.155364 -1.169121 -9.354712 13.784500 -0.884877 0.093475 1.241482 -0.516971 -0.004952 8.311939 0.000003 0.000000 0.000000 
-0.089540 98.208038 -1.417032 7.043511 -12.153876 -0.267483 -0.023067 13.157008 0.957426 4.250277 -0.431995 1.024331 5.833836 -0.842149 0.936053 5.841606 -0.766334 0.957556 -0.000000 26.776302 -4.691207 -0.227798 2.485399 -1.855955 -0.000001 14.063211 3.449329 -16.665578 10.171978 1.417641 -0.000001 19.645218 2.611582 0.000000 0.000000 -0.000000 3.570281 7.264587 7.838835 0.000000 0.000000 -0.000000 -3.524154 7.264282 7.838839 0.000000 0.000000 -0.000000 7.980430 21.886385 -6.266440 1.195788 -4.127213 -16.275711 -5.286548 -9.553141 -54.220576 61.472679 -73.117407 61.627841 12.481845 -6.614149 12.290962 5.751500 -2.607741 4.214725 0.101866 3.999710 6.203508 2.728230 -1.585454 1.645168 7.883956 2.075934 -1.680231 2.690665 -1.563676 1.622505 24.296264 22.507428 -10.490420 2.811088 -1.633602 1.695143 -0.000001 0.000004 0.000003 13.704100 -1.118980 2.963537 -7.946841 -1.330505 -15.291315 0.566351 2.881912 -21.282289 1.709931 4.322510 -34.047352 0.000000 -0.000001 0.000000 13.314014 -0.054772 0.195226 -1.629493 3.867420 -11.720989 1.663375 5.237109 -42.514953 0.028772 2.066251 -15.154241 -0.000000 0.000002 -0.000000 12.889360 0.014842 -3.304786 -1.193239 15.970927 1.694989 0.441328 3.458116 -25.498650 1.173924 3.869163 -29.868093 -0.000000 -0.000004 -0.000003 12.770169 -1.052110 -6.055622 5.707978 21.475093 -10.441828 0.730056 3.714763 -27.121578 2.125151 4.756850 -38.156538 0.000000 -0.000002 -0.000001 -7.980436 21.886810 -6.266443 2.669098 1.085995 13.223939 -12.515543 10.496335 64.361036 -135.006079 92.077336 138.731046 10.793354 1.220145 15.085992 -5.971836 -2.424535 3.942988 -5.621806 15.804100 -15.844237 -2.728205 -1.585018 1.645161 13.581646 -40.317200 -2.102891 -2.690706 -1.563977 1.622514 5.834628 19.120893 -2.384550 -2.811152 -1.633022 1.695158 -0.000001 -0.000003 0.000004 -13.521736 -0.054582 0.198887 0.653099 -1.597320 -12.673860 2.617825 -5.204668 45.971988 0.142241 -1.323034 10.099420 0.000001 -0.000001 -0.000002 -12.702797 0.785920 -3.722346 -0.245874 -6.680838 18.286092 -0.297917 -2.138533 15.665198 -0.140621 -0.957572 7.186186 -0.000000 0.000004 0.000002 -12.544331 -0.205686 -6.499252 -0.075886 -8.259190 18.703766 3.118594 -5.756786 51.813255 1.955771 -4.234456 36.505701 0.000002 0.000003 -0.000001 10.121317 -5.316740 0.163049 -44.090090 8.792465 21.791461 40.092606 2.120048 2.050993 -0.963370 1.179067 -15.894709 1.169125 -9.354690 13.784522 -0.343903 0.250584 3.126579 0.516997 -0.004915 8.312321 0.000001 -0.000001 0.000000 -10.121302 -5.316552 0.163043 -34.619026 -9.996751 -16.922480 42.601375 -16.525576 -3.214330 -7.034508 -1.924101 17.221419 -1.169121 -9.354712 13.784499 -1.375411 0.096345 2.108918 -0.516977 -0.004952 8.311945 0.000003 -0.000000 0.000000 
